<svg viewBox="0 0 400 245" xmlns="http://www.w3.org/2000/svg" xmlns:xlink="http://www.w3.org/1999/xlink" id="Layer_1" xml:space="preserve" overflow="hidden"><g><g><g><g><path d="M86.535 180.333C86.438 180.333 86.355 180.299 86.288 180.232 86.219 180.163 86.187 180.081 86.187 179.984L86.187 170.359C86.187 170.263 86.22 170.179 86.288 170.112 86.355 170.045 86.437 170.011 86.535 170.011L87.829 170.011C87.936 170.011 88.021 170.045 88.084 170.112 88.147 170.179 88.179 170.263 88.179 170.359L88.179 173.674C88.441 173.364 88.76 173.112 89.139 172.919 89.516 172.726 89.982 172.628 90.535 172.628 91.126 172.628 91.643 172.761 92.083 173.027 92.524 173.294 92.866 173.67 93.108 174.154 93.351 174.639 93.471 175.221 93.471 175.899L93.471 179.984C93.471 180.081 93.437 180.164 93.37 180.232 93.301 180.299 93.219 180.333 93.123 180.333L91.814 180.333C91.717 180.333 91.634 180.299 91.567 180.232 91.498 180.163 91.466 180.081 91.466 179.984L91.466 175.986C91.466 175.424 91.328 174.982 91.051 174.663 90.775 174.342 90.375 174.183 89.851 174.183 89.348 174.183 88.942 174.342 88.638 174.663 88.332 174.982 88.18 175.424 88.18 175.986L88.18 179.984C88.18 180.081 88.148 180.164 88.085 180.232 88.022 180.299 87.937 180.333 87.83 180.333L86.535 180.333Z" fill="#FFFFFF"/><path d="M98.661 180.478C97.886 180.478 97.234 180.342 96.706 180.071 96.177 179.8 95.775 179.417 95.5 178.922 95.223 178.428 95.065 177.851 95.027 177.192 95.017 177.018 95.012 176.804 95.012 176.552 95.012 176.301 95.017 176.087 95.027 175.913 95.065 175.244 95.229 174.664 95.514 174.175 95.801 173.686 96.208 173.306 96.735 173.034 97.263 172.763 97.906 172.627 98.661 172.627 99.418 172.627 100.059 172.763 100.589 173.034 101.117 173.305 101.524 173.685 101.81 174.175 102.095 174.664 102.258 175.244 102.297 175.913 102.307 176.087 102.312 176.301 102.312 176.552 102.312 176.804 102.307 177.018 102.297 177.192 102.259 177.851 102.101 178.429 101.824 178.922 101.548 179.417 101.145 179.799 100.618 180.071 100.088 180.342 99.437 180.478 98.661 180.478ZM98.661 179.038C99.175 179.038 99.573 178.876 99.854 178.551 100.135 178.226 100.29 177.749 100.319 177.118 100.329 176.973 100.334 176.783 100.334 176.55 100.334 176.318 100.329 176.129 100.319 175.984 100.29 175.363 100.135 174.889 99.854 174.558 99.573 174.229 99.175 174.064 98.661 174.064 98.148 174.064 97.751 174.229 97.47 174.558 97.189 174.888 97.034 175.363 97.004 175.984 96.994 176.129 96.99 176.319 96.99 176.55 96.99 176.783 96.994 176.972 97.004 177.118 97.034 177.749 97.189 178.226 97.47 178.551 97.75 178.877 98.148 179.038 98.661 179.038Z" fill="#FFFFFF"/><path d="M106.789 180.478C106.208 180.478 105.711 180.411 105.299 180.275 104.888 180.139 104.55 179.969 104.289 179.765 104.027 179.562 103.834 179.358 103.708 179.155 103.582 178.951 103.513 178.782 103.504 178.646 103.494 178.539 103.526 178.454 103.599 178.391 103.672 178.328 103.753 178.296 103.839 178.296L104.988 178.296C105.026 178.296 105.061 178.301 105.089 178.311 105.119 178.321 105.158 178.349 105.206 178.397 105.332 178.504 105.465 178.615 105.606 178.732 105.746 178.849 105.913 178.949 106.108 179.031 106.301 179.113 106.544 179.154 106.835 179.154 107.213 179.154 107.53 179.079 107.788 178.929 108.044 178.778 108.173 178.563 108.173 178.282 108.173 178.078 108.117 177.913 108.006 177.787 107.895 177.661 107.688 177.547 107.388 177.446 107.088 177.343 106.661 177.235 106.109 177.118 105.566 176.992 105.115 176.833 104.757 176.638 104.398 176.445 104.13 176.202 103.956 175.911 103.782 175.62 103.694 175.28 103.694 174.892 103.694 174.515 103.808 174.153 104.037 173.809 104.265 173.465 104.603 173.181 105.054 172.959 105.505 172.736 106.064 172.624 106.733 172.624 107.257 172.624 107.712 172.69 108.1 172.82 108.488 172.95 108.81 173.113 109.066 173.307 109.324 173.502 109.52 173.698 109.656 173.897 109.792 174.096 109.864 174.267 109.874 174.412 109.884 174.519 109.855 174.604 109.786 174.667 109.719 174.73 109.641 174.762 109.554 174.762L108.478 174.762C108.429 174.762 108.385 174.752 108.346 174.733 108.308 174.714 108.269 174.689 108.229 174.66 108.123 174.563 108.007 174.461 107.881 174.354 107.755 174.247 107.603 174.152 107.423 174.07 107.243 173.988 107.008 173.947 106.717 173.947 106.35 173.947 106.069 174.027 105.874 174.187 105.681 174.347 105.583 174.548 105.583 174.79 105.583 174.955 105.63 175.098 105.721 175.219 105.813 175.34 105.999 175.453 106.28 175.56 106.561 175.667 106.987 175.778 107.56 175.895 108.208 176.012 108.725 176.184 109.108 176.412 109.49 176.64 109.762 176.901 109.922 177.196 110.082 177.492 110.162 177.82 110.162 178.178 110.162 178.614 110.033 179.007 109.777 179.356 109.521 179.706 109.142 179.98 108.643 180.179 108.143 180.378 107.526 180.478 106.789 180.478Z" fill="#FFFFFF"/><path d="M115.047 180.333C114.466 180.333 113.976 180.232 113.579 180.027 113.181 179.824 112.887 179.521 112.692 179.118 112.499 178.716 112.401 178.215 112.401 177.614L112.401 174.313 111.252 174.313C111.155 174.313 111.072 174.279 111.005 174.212 110.936 174.143 110.904 174.061 110.904 173.965L110.904 173.121C110.904 173.025 110.937 172.943 111.005 172.874 111.072 172.807 111.154 172.773 111.252 172.773L112.401 172.773 112.401 170.359C112.401 170.263 112.433 170.179 112.496 170.112 112.559 170.045 112.644 170.011 112.751 170.011L113.929 170.011C114.025 170.011 114.109 170.045 114.176 170.112 114.243 170.179 114.277 170.263 114.277 170.359L114.277 172.773 116.095 172.773C116.192 172.773 116.275 172.807 116.342 172.874 116.411 172.943 116.445 173.025 116.445 173.121L116.445 173.965C116.445 174.061 116.411 174.143 116.342 174.212 116.275 174.279 116.193 174.313 116.095 174.313L114.277 174.313 114.277 177.469C114.277 177.867 114.348 178.176 114.488 178.398 114.629 178.621 114.873 178.733 115.223 178.733L116.227 178.733C116.323 178.733 116.405 178.767 116.474 178.836 116.541 178.903 116.575 178.985 116.575 179.083L116.575 179.984C116.575 180.081 116.541 180.164 116.474 180.232 116.405 180.299 116.323 180.333 116.227 180.333L115.047 180.333Z" fill="#FFFFFF"/><path d="M121.126 180.478C120.05 180.478 119.197 180.168 118.566 179.547 117.935 178.927 117.597 178.044 117.549 176.901 117.539 176.804 117.534 176.68 117.534 176.531 117.534 176.38 117.539 176.261 117.549 176.175 117.587 175.447 117.755 174.818 118.051 174.284 118.346 173.751 118.756 173.341 119.279 173.056 119.803 172.769 120.418 172.627 121.126 172.627 121.91 172.627 122.57 172.789 123.103 173.114 123.636 173.439 124.038 173.89 124.309 174.466 124.58 175.043 124.716 175.709 124.716 176.466L124.716 176.772C124.716 176.868 124.683 176.95 124.615 177.019 124.548 177.086 124.46 177.12 124.353 177.12L119.526 177.12C119.526 177.178 119.526 177.217 119.526 177.237 119.536 177.576 119.601 177.89 119.722 178.175 119.844 178.462 120.022 178.692 120.261 178.866 120.498 179.04 120.782 179.128 121.111 179.128 121.382 179.128 121.61 179.087 121.795 179.005 121.979 178.923 122.13 178.828 122.245 178.721 122.362 178.614 122.444 178.526 122.493 178.459 122.579 178.342 122.651 178.273 122.704 178.248 122.756 178.223 122.837 178.212 122.944 178.212L124.194 178.212C124.29 178.212 124.371 178.241 124.434 178.298 124.497 178.357 124.523 178.43 124.514 178.516 124.504 178.671 124.425 178.86 124.274 179.084 124.123 179.307 123.908 179.525 123.627 179.738 123.346 179.952 122.995 180.129 122.573 180.269 122.15 180.408 121.669 180.478 121.126 180.478ZM119.526 175.898 122.739 175.898 122.739 175.854C122.739 175.477 122.676 175.147 122.55 174.866 122.424 174.585 122.24 174.363 121.998 174.197 121.755 174.032 121.465 173.95 121.126 173.95 120.786 173.95 120.495 174.032 120.253 174.197 120.012 174.363 119.829 174.585 119.709 174.866 119.587 175.147 119.527 175.477 119.527 175.854L119.527 175.898Z" fill="#FFFFFF"/><path d="M129.065 180.478C128.561 180.478 128.118 180.393 127.735 180.223 127.351 180.054 127.034 179.814 126.782 179.503 126.53 179.193 126.336 178.827 126.201 178.406 126.064 177.984 125.987 177.522 125.968 177.017 125.958 176.843 125.953 176.685 125.953 176.544 125.953 176.404 125.958 176.247 125.968 176.071 125.987 175.587 126.063 175.136 126.193 174.719 126.325 174.302 126.518 173.936 126.776 173.621 127.032 173.307 127.352 173.062 127.736 172.888 128.118 172.713 128.561 172.626 129.066 172.626 129.59 172.626 130.033 172.715 130.396 172.895 130.761 173.075 131.062 173.305 131.305 173.586L131.305 170.357C131.305 170.261 131.337 170.177 131.4 170.11 131.463 170.043 131.548 170.009 131.655 170.009L132.89 170.009C132.987 170.009 133.07 170.043 133.138 170.11 133.205 170.177 133.239 170.261 133.239 170.357L133.239 179.982C133.239 180.079 133.205 180.162 133.138 180.23 133.069 180.297 132.987 180.331 132.89 180.331L131.741 180.331C131.635 180.331 131.55 180.297 131.487 180.23 131.424 180.161 131.392 180.079 131.392 179.982L131.392 179.445C131.149 179.745 130.842 179.993 130.468 180.187 130.094 180.381 129.627 180.478 129.065 180.478ZM129.602 178.922C130.009 178.922 130.334 178.83 130.577 178.646 130.82 178.461 130.999 178.226 131.114 177.94 131.231 177.655 131.294 177.361 131.303 177.061 131.313 176.886 131.318 176.699 131.318 176.5 131.318 176.301 131.313 176.115 131.303 175.941 131.293 175.65 131.226 175.372 131.1 175.105 130.974 174.839 130.789 174.618 130.548 174.444 130.305 174.269 129.99 174.182 129.602 174.182 129.195 174.182 128.873 174.271 128.635 174.451 128.397 174.631 128.225 174.865 128.12 175.156 128.013 175.447 127.95 175.767 127.931 176.116 127.921 176.407 127.921 176.697 127.931 176.989 127.95 177.337 128.013 177.657 128.12 177.949 128.226 178.24 128.398 178.474 128.635 178.654 128.872 178.834 129.195 178.922 129.602 178.922Z" fill="#FFFFFF"/><path d="M142.689 180.478C142.126 180.478 141.658 180.381 141.285 180.187 140.912 179.994 140.604 179.746 140.362 179.445L140.362 179.982C140.362 180.079 140.33 180.162 140.267 180.23 140.204 180.297 140.119 180.331 140.012 180.331L138.863 180.331C138.766 180.331 138.683 180.297 138.616 180.23 138.547 180.161 138.515 180.079 138.515 179.982L138.515 170.357C138.515 170.261 138.548 170.177 138.616 170.11 138.683 170.043 138.765 170.009 138.863 170.009L140.1 170.009C140.206 170.009 140.291 170.043 140.354 170.11 140.417 170.177 140.449 170.261 140.449 170.357L140.449 173.586C140.692 173.305 140.995 173.075 141.358 172.895 141.721 172.715 142.165 172.626 142.689 172.626 143.202 172.626 143.649 172.712 144.026 172.888 144.404 173.062 144.722 173.307 144.979 173.621 145.235 173.936 145.431 174.302 145.569 174.719 145.703 175.136 145.777 175.587 145.787 176.071 145.797 176.246 145.801 176.404 145.801 176.544 145.801 176.685 145.797 176.843 145.787 177.017 145.766 177.522 145.69 177.984 145.554 178.406 145.418 178.827 145.224 179.193 144.973 179.503 144.721 179.814 144.405 180.054 144.027 180.223 143.649 180.393 143.202 180.478 142.689 180.478ZM142.15 178.922C142.567 178.922 142.892 178.833 143.125 178.653 143.357 178.473 143.524 178.239 143.627 177.948 143.728 177.656 143.789 177.337 143.808 176.988 143.827 176.696 143.827 176.405 143.808 176.115 143.789 175.767 143.728 175.446 143.627 175.155 143.524 174.864 143.357 174.63 143.125 174.45 142.892 174.27 142.567 174.181 142.15 174.181 141.762 174.181 141.447 174.267 141.205 174.443 140.962 174.617 140.779 174.838 140.653 175.104 140.527 175.371 140.458 175.65 140.449 175.94 140.439 176.114 140.435 176.301 140.435 176.499 140.435 176.698 140.439 176.884 140.449 177.06 140.468 177.36 140.534 177.654 140.645 177.939 140.757 178.226 140.937 178.46 141.184 178.645 141.431 178.83 141.753 178.922 142.15 178.922Z" fill="#FFFFFF"/><path d="M148.474 183.095C148.396 183.095 148.329 183.066 148.27 183.009 148.212 182.95 148.184 182.883 148.184 182.805 148.184 182.767 148.187 182.73 148.191 182.695 148.196 182.662 148.213 182.621 148.242 182.572L149.377 179.882 146.584 173.296C146.546 173.199 146.526 173.131 146.526 173.092 146.536 173.006 146.57 172.93 146.627 172.867 146.685 172.804 146.757 172.772 146.845 172.772L148.023 172.772C148.14 172.772 148.227 172.801 148.285 172.858 148.344 172.917 148.386 172.98 148.417 173.047L150.35 177.803 152.342 173.047C152.371 172.97 152.415 172.904 152.474 172.851 152.532 172.798 152.619 172.771 152.736 172.771L153.899 172.771C153.977 172.771 154.047 172.8 154.11 172.857 154.173 172.916 154.205 172.983 154.205 173.061 154.205 173.119 154.186 173.197 154.146 173.294L150.032 182.818C149.992 182.895 149.944 182.961 149.887 183.014 149.828 183.067 149.742 183.094 149.625 183.094L148.474 183.094Z" fill="#FFFFFF"/></g></g><g><path d="M217.049 201.727 218.654 201.727 218.654 195.75 224.46 195.75 224.46 194.316 218.654 194.316 218.654 189.808 225.04 189.808 225.04 188.374 217.049 188.374Z" fill="#FFFFFF"/><path d="M231.119 191.584C228.421 191.584 226.577 193.633 226.577 196.775 226.577 199.883 228.387 201.932 231.119 201.932 233.851 201.932 235.661 199.883 235.661 196.775 235.661 193.633 233.817 191.584 231.119 191.584ZM231.119 200.532C229.07 200.532 228.114 198.756 228.114 196.741 228.114 194.726 229.036 192.95 231.119 192.95 233.168 192.95 234.124 194.76 234.124 196.741 234.125 198.756 233.168 200.532 231.119 200.532Z" fill="#FFFFFF"/><path d="M244.507 197.629C244.507 199.507 243.073 200.361 241.911 200.361 240.647 200.361 239.725 199.439 239.725 197.97L239.725 191.72 238.188 191.72 238.188 198.072C238.188 200.633 239.554 201.863 241.432 201.863 242.935 201.863 243.925 201.043 244.403 200.053L244.505 200.053 244.505 201.761 246.042 201.761 246.042 191.72 244.505 191.72 244.505 197.629Z" fill="#FFFFFF"/><path d="M253.933 191.584C252.43 191.584 251.474 192.267 251.03 193.292L250.893 193.292 250.893 191.721 249.424 191.721 249.424 201.727 250.961 201.727 250.961 195.682C250.961 193.94 252.054 192.95 253.522 192.95 254.956 192.95 255.81 193.872 255.81 195.443L255.81 201.693 257.347 201.693 257.347 195.341C257.314 192.813 255.947 191.584 253.933 191.584Z" fill="#FFFFFF"/><path d="M267.32 193.291 267.183 193.291C266.841 192.779 266.261 191.583 264.28 191.583 261.753 191.583 260.011 193.598 260.011 196.74 260.011 199.916 261.753 201.931 264.246 201.931 266.158 201.931 266.842 200.736 267.149 200.189L267.32 200.189 267.32 201.726 268.789 201.726 268.789 188.373 267.252 188.373 267.252 193.291 267.32 193.291ZM264.485 200.532C262.572 200.532 261.582 198.824 261.582 196.707 261.582 194.59 262.538 192.95 264.485 192.95 266.363 192.95 267.354 194.453 267.354 196.707 267.354 198.961 266.33 200.532 264.485 200.532Z" fill="#FFFFFF"/><path d="M276.029 191.584C274.526 191.584 272.785 192.096 272.033 193.94L273.502 194.452C273.844 193.735 274.629 192.949 276.098 192.949 277.532 192.949 278.215 193.7 278.215 194.998 278.215 195.749 277.464 195.715 275.619 195.92 273.775 196.159 271.726 196.569 271.726 198.857 271.726 200.804 273.229 201.931 275.141 201.931 276.883 201.931 277.805 201.009 278.112 200.326L278.18 200.326 278.18 201.692 279.717 201.692 279.717 195.135C279.751 191.959 277.326 191.584 276.029 191.584ZM278.214 198.107C278.214 199.371 277.224 200.566 275.414 200.566 274.185 200.566 273.297 200.02 273.297 198.961 273.297 197.8 274.356 197.424 275.551 197.253 276.2 197.185 277.942 196.98 278.215 196.672L278.215 198.107 278.214 198.107Z" fill="#FFFFFF"/><path d="M286.65 200.361C285.967 200.361 285.318 200.156 285.318 198.858L285.318 193.018 287.47 193.018 287.47 191.72 285.318 191.72 285.318 189.329 283.781 189.329 283.781 191.72 282.278 191.72 282.278 193.018 283.781 193.018 283.781 199.268C283.781 201.01 285.181 201.864 286.479 201.864 287.06 201.864 287.401 201.762 287.64 201.693L287.333 200.327C287.196 200.292 286.991 200.361 286.65 200.361Z" fill="#FFFFFF"/><rect x="290.406" y="191.72" width="1.537" height="10.006" fill="#FFFFFF"/><path d="M291.192 187.998C290.577 187.998 290.099 188.476 290.099 189.057 290.099 189.638 290.611 190.116 291.192 190.116 291.807 190.116 292.285 189.638 292.285 189.057 292.285 188.442 291.807 187.998 291.192 187.998Z" fill="#FFFFFF"/><path d="M299.218 191.584C296.52 191.584 294.676 193.633 294.676 196.775 294.676 199.883 296.486 201.932 299.218 201.932 301.95 201.932 303.76 199.883 303.76 196.775 303.726 193.633 301.916 191.584 299.218 191.584ZM299.218 200.532C297.169 200.532 296.213 198.756 296.213 196.741 296.213 194.726 297.135 192.95 299.218 192.95 301.267 192.95 302.223 194.76 302.223 196.741 302.189 198.756 301.267 200.532 299.218 200.532Z" fill="#FFFFFF"/><path d="M310.795 191.584C309.292 191.584 308.336 192.267 307.892 193.292L307.755 193.292 307.755 191.721 306.286 191.721 306.286 201.727 307.823 201.727 307.823 195.682C307.823 193.94 308.916 192.95 310.384 192.95 311.818 192.95 312.672 193.872 312.672 195.443L312.672 201.693 314.209 201.693 314.209 195.341C314.176 192.813 312.81 191.584 310.795 191.584Z" fill="#FFFFFF"/><path d="M227.909 174.713 222.342 174.713 222.342 176.83 225.142 176.83C225.142 178.503 223.81 179.528 222.137 179.528 220.054 179.528 218.722 177.991 218.722 175.157 218.722 172.425 220.02 170.82 222.069 170.82 223.538 170.82 224.528 171.571 224.938 172.835L227.807 172.835C227.431 170.205 225.075 168.327 222.07 168.327 218.552 168.327 215.889 170.854 215.889 175.191 215.889 179.426 218.416 182.021 222.139 182.021 225.52 182.021 227.945 179.904 227.945 176.386L227.909 174.713 227.909 174.713Z" fill="#FFFFFF"/><path d="M233.339 173.586 233.237 173.586 233.237 171.844 230.539 171.844 230.539 181.85 233.305 181.85 233.305 176.181C233.305 174.952 234.193 174.132 235.32 174.132 235.696 174.132 236.003 174.234 236.276 174.371L237.096 172.083C236.72 171.878 236.276 171.707 235.73 171.707 234.603 171.708 233.681 172.356 233.339 173.586Z" fill="#FFFFFF"/><path d="M242.697 171.708C240.238 171.708 238.667 172.869 238.291 174.679L240.852 174.884C241.057 174.235 241.637 173.723 242.628 173.723 243.584 173.723 244.097 174.201 244.097 175.021 244.097 175.67 243.414 175.772 241.672 175.943 239.691 176.114 237.915 176.797 237.915 179.017 237.915 180.998 239.315 181.988 241.228 181.988 242.697 181.988 243.653 181.339 244.165 180.417L244.233 180.417 244.233 181.817 246.863 181.817 246.863 175.089C246.897 172.698 244.848 171.708 242.697 171.708ZM244.131 178.265C244.131 179.324 243.277 180.109 242.048 180.109 241.194 180.109 240.579 179.699 240.579 178.948 240.579 178.163 241.228 177.787 242.184 177.65 242.799 177.582 243.789 177.411 244.096 177.206L244.096 178.265 244.131 178.265Z" fill="#FFFFFF"/><path d="M255.299 171.708C253.626 171.708 252.84 172.698 252.464 173.518L252.327 173.518 252.327 171.845 249.595 171.845 249.595 185.608 252.361 185.608 252.361 180.246 252.429 180.246C252.805 181.066 253.658 182.022 255.264 182.022 257.552 182.022 259.328 180.212 259.328 176.865 259.363 173.415 257.484 171.708 255.299 171.708ZM254.411 179.801C253.079 179.801 252.328 178.64 252.294 176.83 252.294 175.054 253.045 173.893 254.411 173.893 255.777 173.893 256.528 175.088 256.528 176.83 256.528 178.606 255.777 179.801 254.411 179.801Z" fill="#FFFFFF"/><path d="M267.559 171.708C266.056 171.708 265.032 172.425 264.554 173.586L264.452 173.586 264.452 168.497 261.754 168.497 261.754 181.85 264.52 181.85 264.52 176.044C264.52 174.746 265.305 173.995 266.433 173.995 267.561 173.995 268.209 174.712 268.209 175.942L268.209 181.816 270.975 181.816 270.975 175.464C271.008 173.142 269.642 171.708 267.559 171.708Z" fill="#FFFFFF"/><path d="M285.284 182.943 283.372 180.552C284.67 179.391 285.489 177.547 285.489 175.19 285.489 170.819 282.791 168.326 279.239 168.326 275.687 168.326 272.989 170.819 272.989 175.19 272.989 179.527 275.687 182.054 279.239 182.054 280.059 182.054 280.844 181.917 281.561 181.644L282.62 182.976 285.284 182.976 285.284 182.943ZM281.664 178.47 280.674 177.206 278.283 177.206 279.991 179.46C279.752 179.494 279.513 179.528 279.274 179.528 277.225 179.528 275.893 177.991 275.893 175.157 275.893 172.322 277.225 170.786 279.274 170.786 281.323 170.786 282.655 172.323 282.655 175.157 282.654 176.625 282.278 177.752 281.664 178.47Z" fill="#FFFFFF"/><path d="M296.69 179.528 290.953 179.528 290.953 168.497 288.152 168.497 288.152 181.851 296.69 181.851Z" fill="#FFFFFF"/><path d="M204.686 179.597C206.701 178.436 207.384 175.84 206.223 173.825 205.062 171.81 202.5 171.127 200.52 172.288 200.144 172.493 199.837 172.766 199.564 173.039L189.899 167.404C190.001 167.028 190.07 166.619 190.07 166.209 190.07 163.853 188.192 161.974 185.904 161.974 183.616 161.974 181.703 163.852 181.703 166.209 181.703 166.619 181.771 167.029 181.874 167.404L172.209 173.039C171.936 172.766 171.628 172.493 171.253 172.288 169.272 171.093 166.711 171.81 165.55 173.825 164.389 175.84 165.106 178.435 167.087 179.597 167.429 179.802 167.804 179.939 168.214 180.041L168.214 191.311C167.838 191.413 167.463 191.55 167.121 191.755 165.106 192.916 164.423 195.512 165.584 197.527 166.745 199.542 169.272 200.225 171.287 199.064 171.629 198.859 171.936 198.586 172.209 198.313L181.874 203.948C181.772 204.324 181.703 204.733 181.703 205.143 181.703 207.465 183.581 209.378 185.87 209.378 188.158 209.378 190.036 207.466 190.036 205.143 190.036 204.665 189.968 204.221 189.831 203.811L199.428 198.21C199.701 198.552 200.077 198.825 200.453 199.064 202.468 200.225 205.029 199.542 206.156 197.527 207.317 195.512 206.634 192.917 204.619 191.755 204.277 191.55 203.902 191.413 203.526 191.311L203.526 180.041C203.969 179.938 204.31 179.801 204.686 179.597ZM170.364 191.345C170.296 191.345 170.262 191.311 170.193 191.311L170.193 180.041C171.252 179.768 172.208 179.085 172.823 178.06 173.404 177.035 173.506 175.84 173.233 174.781L182.898 169.146C182.932 169.18 182.966 169.214 183 169.248L170.364 191.345ZM188.976 202.273C188.225 201.419 187.098 200.907 185.902 200.907 184.707 200.907 183.648 201.419 182.897 202.205L173.198 196.57C173.198 196.502 173.232 196.468 173.232 196.399L198.504 196.399C198.538 196.501 198.538 196.57 198.572 196.672L188.976 202.273ZM198.948 193.291C198.743 193.633 198.606 194.008 198.504 194.418L173.266 194.418C173.164 194.042 173.027 193.667 172.822 193.291 172.617 192.949 172.378 192.608 172.071 192.335L184.707 170.239C185.083 170.341 185.458 170.41 185.868 170.41 186.278 170.41 186.653 170.342 187.029 170.239L199.665 192.335C199.427 192.608 199.153 192.916 198.948 193.291ZM201.578 191.311C201.51 191.311 201.476 191.345 201.407 191.345L188.771 169.249C188.805 169.215 188.839 169.181 188.873 169.147L198.538 174.782C198.231 175.841 198.333 177.002 198.948 178.061 199.529 179.086 200.485 179.769 201.578 180.042L201.578 191.311Z" fill="#FFFFFF"/></g></g><g><path d="M29.279 53.279C28.542 51.924 27.488 50.889 26.114 50.172 24.739 49.456 23.122 49.097 21.265 49.097 18.05 49.097 15.476 50.153 13.54 52.262 11.603 54.373 10.637 57.19 10.637 60.712 10.637 64.468 11.653 67.401 13.686 69.511 15.718 71.622 18.516 72.676 22.079 72.676 24.518 72.676 26.58 72.057 28.264 70.818 29.949 69.579 31.177 67.798 31.953 65.475L19.348 65.475 19.348 58.157 40.953 58.157 40.953 67.392C40.217 69.87 38.968 72.174 37.207 74.303 35.445 76.433 33.208 78.156 30.499 79.472 27.788 80.789 24.729 81.447 21.323 81.447 17.295 81.447 13.705 80.566 10.549 78.804 7.393 77.042 4.934 74.593 3.172 71.457 1.41 68.321 0.53 64.741 0.53 60.713 0.53 56.687 1.41 53.096 3.172 49.94 4.934 46.785 7.383 44.326 10.519 42.564 13.656 40.802 17.236 39.921 21.264 39.921 26.142 39.921 30.256 41.103 33.606 43.464 36.954 45.826 39.171 49.097 40.255 53.279L29.279 53.279Z" fill="#FFFFFF"/><path d="M60.758 49.94C62.501 48.915 64.436 48.401 66.566 48.401L66.566 58.913 63.836 58.913C61.358 58.913 59.499 59.445 58.26 60.51 57.021 61.575 56.402 63.443 56.402 66.115L56.402 81.157 46.47 81.157 46.47 48.749 56.402 48.749 56.402 54.15C57.564 52.37 59.015 50.966 60.758 49.94Z" fill="#FFFFFF"/><path d="M71.241 56.125C72.498 53.609 74.212 51.673 76.381 50.317 78.549 48.962 80.969 48.284 83.641 48.284 85.925 48.284 87.928 48.749 89.652 49.678 91.375 50.607 92.702 51.827 93.63 53.337L93.63 48.749 103.561 48.749 103.561 81.157 93.63 81.157 93.63 76.569C92.662 78.079 91.316 79.299 89.594 80.228 87.871 81.157 85.867 81.622 83.583 81.622 80.949 81.622 78.549 80.935 76.381 79.561 74.212 78.187 72.498 76.231 71.241 73.695 69.982 71.159 69.353 68.226 69.353 64.896 69.353 61.565 69.982 58.642 71.241 56.125ZM91.568 59.087C90.193 57.655 88.519 56.938 86.544 56.938 84.569 56.938 82.895 57.645 81.521 59.058 80.146 60.472 79.459 62.418 79.459 64.895 79.459 67.373 80.146 69.338 81.521 70.79 82.895 72.242 84.57 72.968 86.544 72.968 88.519 72.968 90.193 72.252 91.568 70.819 92.942 69.387 93.63 67.431 93.63 64.953 93.63 62.475 92.942 60.52 91.568 59.087Z" fill="#FFFFFF"/><path d="M124.701 49.678C126.404 48.749 128.398 48.284 130.683 48.284 133.355 48.284 135.774 48.962 137.943 50.317 140.111 51.673 141.824 53.608 143.083 56.125 144.341 58.643 144.97 61.566 144.97 64.895 144.97 68.226 144.341 71.159 143.083 73.694 141.824 76.23 140.111 78.186 137.943 79.56 135.774 80.934 133.355 81.621 130.683 81.621 128.437 81.621 126.453 81.157 124.73 80.227 123.007 79.298 121.66 78.098 120.694 76.626L120.694 96.605 110.762 96.605 110.762 48.749 120.694 48.749 120.694 53.337C121.661 51.827 122.997 50.607 124.701 49.678ZM132.804 59.058C131.429 57.645 129.735 56.938 127.722 56.938 125.747 56.938 124.072 57.655 122.698 59.087 121.323 60.52 120.636 62.475 120.636 64.953 120.636 67.431 121.323 69.387 122.698 70.819 124.072 72.252 125.748 72.968 127.722 72.968 129.697 72.968 131.381 72.242 132.775 70.79 134.169 69.338 134.866 67.373 134.866 64.895 134.866 62.418 134.178 60.472 132.804 59.058Z" fill="#FFFFFF"/><path d="M179.062 52.088C181.308 54.547 182.431 57.925 182.431 62.223L182.431 81.157 172.558 81.157 172.558 63.559C172.558 61.391 171.996 59.707 170.874 58.506 169.75 57.306 168.24 56.705 166.344 56.705 164.447 56.705 162.937 57.306 161.814 58.506 160.69 59.707 160.13 61.391 160.13 63.559L160.13 81.157 150.198 81.157 150.198 38.178 160.13 38.178 160.13 53.104C161.136 51.672 162.511 50.53 164.253 49.677 165.996 48.826 167.95 48.4 170.12 48.4 173.835 48.401 176.816 49.63 179.062 52.088Z" fill="#FFFFFF"/><path d="M218.382 88.127 213.155 81.099C211.606 81.408 210.096 81.563 208.625 81.563 204.792 81.563 201.278 80.673 198.084 78.891 194.89 77.111 192.354 74.622 190.476 71.428 188.597 68.234 187.659 64.643 187.659 60.654 187.659 56.667 188.597 53.085 190.476 49.91 192.354 46.735 194.89 44.257 198.084 42.476 201.278 40.696 204.792 39.804 208.625 39.804 212.458 39.804 215.972 40.695 219.166 42.476 222.361 44.257 224.877 46.735 226.716 49.91 228.554 53.085 229.475 56.667 229.475 60.654 229.475 64.139 228.768 67.324 227.355 70.208 225.941 73.093 223.976 75.484 221.46 77.381L230.404 88.126 218.382 88.126ZM200.755 69.28C202.709 71.429 205.333 72.503 208.625 72.503 211.878 72.503 214.481 71.42 216.437 69.251 218.392 67.083 219.37 64.218 219.37 60.655 219.37 57.054 218.392 54.179 216.437 52.03 214.482 49.881 211.878 48.807 208.625 48.807 205.334 48.807 202.71 49.872 200.755 52.001 198.8 54.131 197.822 57.015 197.822 60.655 197.822 64.256 198.799 67.131 200.755 69.28Z" fill="#FFFFFF"/><path d="M245.04 73.491 258.05 73.491 258.05 81.157 235.108 81.157 235.108 40.386 245.04 40.386 245.04 73.491Z" fill="#FFFFFF"/><path d="M263.74 49.94C265.482 46.785 267.912 44.326 271.029 42.564 274.145 40.802 277.679 39.921 281.628 39.921 286.467 39.921 290.61 41.199 294.057 43.754 297.502 46.31 299.807 49.794 300.968 54.208L290.05 54.208C289.237 52.505 288.085 51.208 286.595 50.317 285.103 49.427 283.409 48.981 281.513 48.981 278.453 48.981 275.975 50.046 274.078 52.175 272.181 54.304 271.233 57.15 271.233 60.712 271.233 64.275 272.181 67.121 274.078 69.25 275.974 71.38 278.453 72.444 281.513 72.444 283.409 72.444 285.103 71.999 286.595 71.108 288.085 70.218 289.237 68.921 290.05 67.217L300.969 67.217C299.807 71.631 297.503 75.107 294.058 77.642 290.611 80.178 286.468 81.446 281.629 81.446 277.68 81.446 274.146 80.565 271.03 78.803 267.912 77.041 265.483 74.592 263.741 71.456 261.998 68.32 261.127 64.739 261.127 60.711 261.127 56.687 261.997 53.096 263.74 49.94Z" fill="#FFFFFF"/><path d="M313.252 79.589C310.716 78.234 308.722 76.298 307.271 73.781 305.819 71.265 305.092 68.322 305.092 64.953 305.092 61.623 305.828 58.691 307.299 56.154 308.77 53.618 310.784 51.673 313.339 50.317 315.895 48.962 318.759 48.284 321.935 48.284 325.109 48.284 327.974 48.962 330.53 50.317 333.086 51.673 335.099 53.618 336.57 56.154 338.041 58.69 338.777 61.623 338.777 64.953 338.777 68.284 338.031 71.216 336.54 73.752 335.049 76.288 333.017 78.234 330.442 79.589 327.867 80.945 324.992 81.621 321.817 81.621 318.644 81.621 315.787 80.945 313.252 79.589ZM326.669 70.935C328.004 69.541 328.672 67.547 328.672 64.953 328.672 62.359 328.024 60.365 326.727 58.971 325.429 57.577 323.832 56.88 321.936 56.88 319.999 56.88 318.393 57.568 317.115 58.942 315.838 60.317 315.198 62.321 315.198 64.953 315.198 67.547 315.827 69.541 317.085 70.935 318.343 72.329 319.921 73.026 321.818 73.026 323.716 73.026 325.333 72.329 326.669 70.935Z" fill="#FFFFFF"/><path d="M372.899 52.088C375.164 54.547 376.296 57.925 376.296 62.223L376.296 81.157 366.423 81.157 366.423 63.559C366.423 61.391 365.861 59.707 364.739 58.506 363.615 57.306 362.105 56.705 360.209 56.705 358.312 56.705 356.802 57.306 355.679 58.506 354.555 59.707 353.995 61.391 353.995 63.559L353.995 81.157 344.063 81.157 344.063 48.749 353.995 48.749 353.995 53.047C355.001 51.615 356.356 50.483 358.06 49.649 359.763 48.817 361.68 48.401 363.81 48.401 367.604 48.401 370.634 49.63 372.899 52.088Z" fill="#FFFFFF"/><path d="M399.47 56.996 394.127 56.996 394.127 81.157 384.196 81.157 384.196 56.996 380.596 56.996 380.596 48.749 384.196 48.749 384.196 47.82C384.196 43.832 385.337 40.802 387.623 38.731 389.907 36.66 393.257 35.624 397.67 35.624 398.406 35.624 398.948 35.644 399.297 35.682L399.297 44.103C397.399 43.987 396.063 44.258 395.289 44.916 394.515 45.575 394.127 46.756 394.127 48.459L394.127 48.75 399.47 48.75 399.47 56.996Z" fill="#FFFFFF"/></g><g><path d="M146.125 130.863C155.321 123.458 164.032 116.489 164.032 109.326 164.032 105.454 162.338 102.55 157.595 102.55 153.045 102.55 150.722 105.696 150.529 110.1L146.27 110.1C146.56 102.647 151.255 98.775 157.546 98.775 164.128 98.775 168.387 102.647 168.387 109.132 168.387 117.844 158.998 125.249 152.755 130.33L169.405 130.33 169.405 134.009 146.126 134.009 146.126 130.863Z" fill="#C8D96A"/><path d="M186.683 98.872C196.315 98.872 198.831 106.519 198.831 116.537 198.831 126.7 196.315 134.396 186.683 134.396 177.004 134.396 174.487 126.7 174.487 116.537 174.487 106.519 177.003 98.872 186.683 98.872ZM186.683 102.889C179.763 102.889 178.843 109.277 178.843 116.537 178.843 124.087 179.763 130.379 186.683 130.379 193.556 130.379 194.475 124.088 194.475 116.537 194.475 109.277 193.555 102.889 186.683 102.889Z" fill="#C8D96A"/><path d="M204.349 130.863C213.545 123.458 222.256 116.489 222.256 109.326 222.256 105.454 220.562 102.55 215.819 102.55 211.269 102.55 208.946 105.696 208.753 110.1L204.494 110.1C204.784 102.647 209.479 98.775 215.77 98.775 222.352 98.775 226.611 102.647 226.611 109.132 226.611 117.844 217.222 125.249 210.979 130.33L227.629 130.33 227.629 134.009 204.35 134.009 204.35 130.863Z" fill="#C8D96A"/><path d="M252.214 107.729C251.536 104.341 249.552 102.357 245.583 102.357 240.017 102.357 237.016 106.18 237.065 116.586 238.565 113.149 242.389 111.213 246.55 111.213 253.084 111.213 257.488 115.521 257.488 122.877 257.488 129.265 253.713 134.492 246.066 134.492 235.709 134.492 233.241 127.039 233.241 116.44 233.241 105.454 236.773 98.678 245.631 98.678 252.31 98.678 255.698 102.84 256.278 107.728L252.214 107.728ZM237.598 122.539C237.598 127.185 240.308 130.814 245.825 130.814 250.375 130.814 253.23 127.765 253.23 123.023 253.23 118.086 250.665 114.94 245.632 114.94 241.615 114.94 237.598 117.312 237.598 122.539Z" fill="#C8D96A"/></g></g></svg>